<svg width="25" height="24" viewBox="0 0 25 24" fill="none" xmlns="http://www.w3.org/2000/svg">
<path d="M12.5 18.485L16.743 14.243C17.582 13.4039 18.1534 12.3348 18.3848 11.1709C18.6162 10.007 18.4973 8.80069 18.0432 7.7044C17.589 6.6081 16.82 5.67109 15.8333 5.01184C14.8466 4.3526 13.6866 4.00073 12.5 4.00073C11.3134 4.00073 10.1534 4.3526 9.16669 5.01184C8.18002 5.67109 7.41098 6.6081 6.95682 7.7044C6.50267 8.80069 6.38379 10.007 6.61522 11.1709C6.84665 12.3348 7.41799 13.4039 8.257 14.243L12.5 18.485ZM18.157 15.657L12.5 21.314L6.843 15.657C5.72422 14.5382 4.96234 13.1127 4.65369 11.5609C4.34504 10.009 4.50349 8.40053 5.10901 6.93874C5.71452 5.47696 6.7399 4.22755 8.05548 3.34852C9.37107 2.46949 10.9178 2.00031 12.5 2.00031C14.0822 2.00031 15.6289 2.46949 16.9445 3.34852C18.2601 4.22755 19.2855 5.47696 19.891 6.93874C20.4965 8.40053 20.655 10.009 20.3463 11.5609C20.0377 13.1127 19.2758 14.5382 18.157 15.657ZM5.5 22H19.5V24H5.5V22Z" fill="#3E64FF"/>
</svg>
