<svg width="20" height="20" viewBox="0 0 20 20" fill="none" xmlns="http://www.w3.org/2000/svg">
<path d="M2.5 13.6692C2.50136 14.4734 2.83249 15.2432 3.41845 15.8057C4.00456 16.368 4.79648 16.6758 5.61632 16.6599C6.43611 16.6439 7.21503 16.3055 7.77773 15.7205C8.35303 16.324 9.15769 16.6667 10 16.6667C10.8423 16.6667 11.647 16.324 12.2223 15.7205C12.785 16.3054 13.5639 16.6439 14.3837 16.6599C15.2035 16.6758 15.9954 16.368 16.5815 15.8057C17.1675 15.2432 17.4986 14.4734 17.5 13.6692V7.94845V8.00926C17.5 7.91937 17.5 7.76868 17.5 7.67595V2.5H2.5V7.67595C2.5 7.76849 2.5 8.00926 2.5 8.00926L2.5 7.94826V13.6692ZM5.55565 15.0313C5.18731 15.0313 4.83388 14.8879 4.57347 14.6325C4.31305 14.3769 4.16657 14.0305 4.16657 13.6692V10.343C5.0379 10.7841 6.07321 10.7841 6.94434 10.343V13.6692C6.94434 14.0305 6.79805 14.3769 6.53764 14.6325C6.27722 14.8879 5.92401 15.0313 5.55565 15.0313ZM10.0002 15.0313C9.63185 15.0313 9.27843 14.8879 9.01781 14.6325C8.75739 14.3769 8.61111 14.0305 8.61111 13.6692V10.343C9.48244 10.7841 10.5176 10.7841 11.3889 10.343V13.6692C11.3889 14.0305 11.2426 14.3769 10.9822 14.6325C10.7216 14.8879 10.3686 15.0313 10.0002 15.0313ZM14.4447 15.0313C14.0764 15.0313 13.7228 14.8879 13.4624 14.6325C13.2019 14.3769 13.0556 14.0305 13.0556 13.6692V10.343C13.9268 10.7841 14.9621 10.7841 15.8334 10.343V13.6692C15.8334 14.0305 15.6869 14.3769 15.4265 14.6325C15.1661 14.8879 14.8131 15.0313 14.4447 15.0313ZM13.0557 4.13459H15.8334V7.67608C15.8334 8.16273 15.5686 8.61232 15.139 8.85555C14.7092 9.09897 14.1797 9.09897 13.7501 8.85555C13.3203 8.61232 13.0557 8.16273 13.0557 7.67608V4.13459ZM8.61111 4.13459H11.3889V7.67608C11.3889 8.16273 11.1242 8.61232 10.6944 8.85555C10.2647 9.09897 9.73532 9.09897 9.30555 8.85555C8.87579 8.61232 8.61111 8.16273 8.61111 7.67608V4.13459ZM4.16657 4.13459H6.94434V7.67608C6.94434 8.16273 6.67967 8.61232 6.2499 8.85555C5.82033 9.09897 5.29077 9.09897 4.86101 8.85555C4.43144 8.61232 4.16657 8.16273 4.16657 7.67608V4.13459Z" fill="#8F8F8F"/>
</svg>
