<svg width="20" height="20" viewBox="0 0 20 20" fill="none" xmlns="http://www.w3.org/2000/svg">
<path d="M14.3219 2.1642H11.7357V5.26764H8.37355C8.37355 4.15888 7.782 3.13423 6.82172 2.57985C5.86162 2.02547 4.67856 2.02547 3.71828 2.57985C2.75818 3.13423 2.16663 4.15888 2.16663 5.26764V14.0609C2.16717 14.8389 2.45978 15.5883 2.98674 16.1606C3.5135 16.733 4.23622 17.0866 5.0114 17.1515V17.1643H14.3219C15.0763 17.1643 15.7999 16.8647 16.3335 16.3312C16.867 15.7976 17.1666 15.074 17.1666 14.3195V14.0608V5.00901C17.1666 4.25456 16.867 3.53097 16.3335 2.99733C15.7999 2.46387 15.0763 2.16424 14.3219 2.16424L14.3219 2.1642ZM5.27011 15.6126C4.85861 15.6126 4.4639 15.4492 4.1729 15.158C3.88173 14.867 3.71829 14.4723 3.71829 14.0608C3.71829 13.6493 3.88173 13.2546 4.1729 12.9636C4.46389 12.6726 4.85862 12.5092 5.27011 12.5092C5.68161 12.5092 6.07633 12.6726 6.36732 12.9636C6.65831 13.2546 6.82175 13.6493 6.82175 14.0608C6.82175 14.4723 6.65831 14.867 6.36732 15.158C6.07634 15.4492 5.6816 15.6126 5.27011 15.6126ZM6.82195 6.04356L6.82177 11.3763C6.35093 11.1014 5.81549 10.9565 5.27012 10.9565C4.72474 10.9565 4.18935 11.1014 3.71828 11.3763V5.26769C3.71828 4.71331 4.01414 4.20096 4.4942 3.92386C4.97427 3.64658 5.56578 3.64658 6.04604 3.92386C6.52611 4.20096 6.82177 4.71331 6.82177 5.26769L6.82195 6.04356ZM14.322 15.6126H7.95481C8.2292 15.1416 8.37388 14.606 8.3737 14.0608V6.81934H11.7359V13.0263H14.3221C14.7841 13.0263 15.2109 13.2727 15.4418 13.6729C15.6729 14.073 15.6729 14.5659 15.4418 14.966C15.2109 15.3661 14.7841 15.6126 14.3221 15.6126L14.322 15.6126ZM15.6152 11.7851C15.2148 11.5801 14.7716 11.4737 14.322 11.4746H13.2875V3.71587H14.322C14.665 3.71587 14.9939 3.85207 15.2363 4.09471C15.479 4.33717 15.6152 4.66604 15.6152 5.00899L15.6152 11.7851Z" fill="#8F8F8F"/>
</svg>
