<svg width="20" height="20" viewBox="0 0 20 20" fill="none" xmlns="http://www.w3.org/2000/svg">
<path d="M2.5 16.087H6.85484V17.5429H2.5V16.087Z" fill="#8F8F8F"/>
<path d="M13.1451 16.087H17.5V17.5429H13.1451V16.087Z" fill="#8F8F8F"/>
<path d="M13.467 13.7942L13.7622 12.3701L12.4195 12.0886V9.69397L13.467 9.9123L13.7622 8.48812L12.4195 8.20667V5.89687H15.3227C15.7719 5.89687 16.2026 5.71798 16.5203 5.39948C16.8379 5.08096 17.0162 4.6489 17.0162 4.19852V2.5H15.5647V4.19852C15.5647 4.26283 15.5392 4.32444 15.4938 4.36996C15.4484 4.41549 15.3868 4.44104 15.3227 4.44104H4.67754C4.54388 4.44104 4.43554 4.33239 4.43554 4.19852V2.5H2.98401V4.19852C2.98401 4.64889 3.16239 5.08094 3.47998 5.39948C3.79759 5.71799 4.22825 5.89686 4.67751 5.89686H7.5807V7.19496L6.5332 6.97663L6.23804 8.40081L7.5807 8.68226V11.077L6.5332 10.8587L6.23804 12.2829L7.5807 12.5642V13.1003C7.57817 14.0017 7.93543 14.8667 8.57268 15.5024L10.0001 16.9338L11.4274 15.5024C11.9548 14.9802 12.295 14.2977 12.3953 13.5613L13.467 13.7942ZM9.0327 5.89674H10.9682V7.90326L9.0327 7.49809V5.89674ZM9.0327 8.98542L10.9682 9.39059V11.7854L9.0327 11.38V8.98542ZM10.402 14.4714L10.0004 14.874L9.59871 14.4712C9.23638 14.1075 9.03284 13.6145 9.03267 13.1003V12.8576L10.9682 13.2604L10.968 13.2606C10.9284 13.7186 10.7277 14.1476 10.402 14.4712L10.402 14.4714Z" fill="#8F8F8F"/>
</svg>
