<svg width="20" height="20" viewBox="0 0 20 20" fill="none" xmlns="http://www.w3.org/2000/svg">
<path fill-rule="evenodd" clip-rule="evenodd" d="M5.13369 2.16833L2.16583 4.82217V11.1873V12.6518V15.6958V17.165V17.1683L17.1658 17.1683L17.1658 17.165L17.1658 15.6958V12.6517V11.1873L17.1658 4.82229L14.1526 2.16833L11.9148 4.16939L9.64287 2.16833L7.40532 4.16913L5.13369 2.16833ZM15.6933 11.1873V5.61279L14.1441 4.20658L12.6561 5.59818L12.6561 11.1873H15.6933ZM11.1835 11.1873V5.61279L9.63435 4.20658L8.14689 5.59763L8.1469 11.1873H11.1835ZM8.1469 12.6517L11.1835 12.6517V15.6958H8.1469L8.1469 12.6517ZM6.67437 11.1873V5.61279L5.12517 4.20658L3.63031 5.60456L3.63031 11.1873H6.67437ZM3.63031 12.6518L6.67437 12.6517V15.6958H3.63031L3.63031 12.6518ZM12.6561 15.6958L12.6561 12.6517L15.6933 12.6517V15.6958H12.6561Z" fill="#8F8F8F"/>
</svg>
