<svg width="20" height="20" viewBox="0 0 20 20" fill="none" xmlns="http://www.w3.org/2000/svg">
<path fill-rule="evenodd" clip-rule="evenodd" d="M17.719 9.89502C17.719 14.0372 14.3611 17.395 10.219 17.395C6.07686 17.395 2.71899 14.0372 2.71899 9.89502C2.71899 5.75288 6.07686 2.39502 10.219 2.39502C14.3611 2.39502 17.719 5.75288 17.719 9.89502ZM16.3402 9.89502C16.3402 13.2757 13.5997 16.0163 10.219 16.0163C6.83833 16.0163 4.09776 13.2757 4.09776 9.89502C4.09776 6.51436 6.83833 3.77378 10.219 3.77378C13.5997 3.77378 16.3402 6.51436 16.3402 9.89502ZM7.65284 12.4612C6.97238 11.7806 6.58996 10.8574 6.58996 9.89501C6.58996 8.93259 6.97239 8.00947 7.65284 7.32886C8.33341 6.6484 9.25657 6.26598 10.219 6.26598C11.1814 6.26598 12.1045 6.64841 12.7852 7.32886C13.4656 8.00943 13.848 8.93259 13.848 9.89501C13.848 10.8574 13.4656 11.7806 12.7852 12.4612C12.1046 13.1416 11.1814 13.524 10.219 13.524C9.25657 13.524 8.33345 13.1416 7.65284 12.4612ZM11.7587 11.4346C12.1671 11.0264 12.3964 10.4725 12.3964 9.89501C12.3964 9.31752 12.1671 8.76363 11.7587 8.3554C11.3504 7.94698 10.7965 7.71764 10.219 7.71764C9.64155 7.71764 9.08766 7.947 8.67942 8.3554C8.27101 8.76362 8.04166 9.31752 8.04166 9.89501C8.04166 10.4725 8.27102 11.0264 8.67942 11.4346C9.08765 11.843 9.64155 12.0724 10.219 12.0724C10.7965 12.0724 11.3504 11.843 11.7587 11.4346Z" fill="#8F8F8F"/>
</svg>
