<svg width="20" height="20" viewBox="0 0 20 20" fill="none" xmlns="http://www.w3.org/2000/svg">
<path d="M2.16588 14.0649C2.16588 14.888 2.49276 15.6773 3.07475 16.2595C3.65688 16.8415 4.44614 17.1683 5.26935 17.1683H15.097C15.6456 17.1683 16.1718 16.9504 16.5599 16.5624C16.9479 16.1743 17.1658 15.6481 17.1658 15.0995V13.0305C17.1658 12.4817 16.9479 11.9555 16.5599 11.5674C16.1718 11.1793 15.6456 10.9614 15.097 10.9614H12.6374L15.5702 8.02867C15.9579 7.64063 16.1758 7.11458 16.1758 6.56616C16.1758 6.01774 15.9578 5.49168 15.5702 5.10365L14.2331 3.76653C13.8452 3.37885 13.3191 3.16112 12.7705 3.16112C12.2221 3.16112 11.6961 3.37886 11.308 3.76653L8.37272 6.69676V4.23717C8.37272 3.68857 8.1548 3.16237 7.76676 2.7743C7.37873 2.38622 6.85248 2.16833 6.3037 2.16833H4.23467C3.68607 2.16833 3.15987 2.38626 2.77179 2.7743C2.38372 3.16233 2.16583 3.68857 2.16583 4.23717L2.16588 14.0649ZM15.6142 13.0305V15.0995C15.6142 15.2366 15.5598 15.3681 15.4627 15.4652C15.3656 15.5622 15.2341 15.6167 15.097 15.6167H5.26938C4.71501 15.6167 4.20266 15.3208 3.92556 14.8408C3.64829 14.3607 3.64829 13.7692 3.92556 13.289C4.20266 12.8089 4.71501 12.5132 5.26938 12.5132H15.097C15.2341 12.5132 15.3656 12.5677 15.4627 12.6646C15.5598 12.7616 15.6142 12.8932 15.6142 13.0304V13.0305ZM12.4047 4.86032C12.5018 4.76326 12.6333 4.7086 12.7706 4.7086C12.9079 4.7086 13.0396 4.76326 13.1366 4.86032L14.4737 6.19744C14.5708 6.2945 14.6255 6.42619 14.6255 6.56347C14.6255 6.70076 14.5708 6.83227 14.4737 6.92933L10.4418 10.9613H8.37275V8.89227L12.4047 4.86032ZM4.23458 3.71984H6.3036C6.44089 3.71984 6.5724 3.77432 6.66946 3.87137C6.76634 3.96843 6.82081 4.09994 6.82081 4.23705V10.9612H5.26917C4.72399 10.961 4.18841 11.1057 3.71734 11.3801V4.23706C3.71734 3.95148 3.94898 3.71986 4.23454 3.71986L4.23458 3.71984Z" fill="#8F8F8F"/>
</svg>
