<svg width="20" height="20" viewBox="0 0 20 20" fill="none" xmlns="http://www.w3.org/2000/svg">
<path d="M17.5 4.16656C17.5 3.72458 17.3366 3.30064 17.0456 2.98809C16.7546 2.67555 16.3599 2.5 15.9484 2.5H10.7759C10.5033 2.50039 10.2358 2.57809 10 2.72496C9.76421 2.57809 9.4967 2.50039 9.22409 2.5H4.05163C3.64014 2.5 3.24542 2.67555 2.95443 2.98809C2.66344 3.30063 2.5 3.72459 2.5 4.16656V6.94434C2.50036 7.23711 2.5727 7.52445 2.70945 7.77773C2.57271 8.03097 2.50036 8.3183 2.5 8.61111V11.3889C2.50036 11.6817 2.5727 11.969 2.70945 12.2223C2.57271 12.4755 2.50036 12.7629 2.5 13.0557V15.8334C2.5 16.2754 2.66344 16.6994 2.95443 17.0119C3.24541 17.3245 3.64015 17.5 4.05163 17.5H9.22409C9.49667 17.4996 9.76419 17.4219 10 17.275C10.2358 17.4219 10.5033 17.4996 10.7759 17.5H15.9484C16.3599 17.5 16.7546 17.3245 17.0456 17.0119C17.3366 16.6994 17.5 16.2754 17.5 15.8334V13.0557C17.4996 12.7629 17.4273 12.4755 17.2906 12.2223C17.4273 11.969 17.4996 11.6817 17.5 11.3889V8.61111C17.4996 8.31834 17.4273 8.031 17.2906 7.77773C17.4273 7.52448 17.4996 7.23715 17.5 6.94434V4.16656ZM15.9482 4.16656L15.9484 6.94434H10.7759V4.16656H15.9482ZM15.9482 11.3888H4.05153V8.61101H15.9482V11.3888ZM4.05153 4.16656H9.22398V6.94434H4.05153V4.16656ZM4.05153 15.8332V13.0557H9.22398V15.8334L4.05153 15.8332ZM15.9482 15.8332L10.7757 15.8334V13.0557H15.9482V15.8332Z" fill="#8F8F8F"/>
</svg>
