<svg width="20" height="20" viewBox="0 0 20 20" fill="none" xmlns="http://www.w3.org/2000/svg">
<path d="M4.19355 17.4999H15.8062C16.2555 17.4999 16.6861 17.3214 17.0038 17.0038C17.3214 16.6862 17.4999 16.2555 17.4999 15.8063V13.8709C17.4999 13.4217 17.3213 12.991 17.0038 12.6734C16.6862 12.3558 16.2555 12.1773 15.8062 12.1773H15.5644V9.75798H17.4999V8.30648H15.5644V5.88716H17.4999V4.43549H15.5644V2.5H14.1127V4.43549H11.6934V2.5H10.2419V4.43549H7.82261V4.19366C7.82261 3.74445 7.64407 3.31377 7.32648 2.99614C7.00888 2.67854 6.57822 2.50001 6.12897 2.50001H4.19365C3.74443 2.50001 3.31375 2.67856 2.99613 2.99614C2.67853 3.31375 2.5 3.7444 2.5 4.19366V15.8064C2.5 16.2556 2.67854 16.6862 2.99613 17.0039C3.31374 17.3215 3.74439 17.5 4.19365 17.5L4.19355 17.4999ZM14.1127 12.1774H11.6934V9.75811H14.1127V12.1774ZM7.82251 9.75811H10.2418V12.1774H7.82251V9.75811ZM14.1127 5.88729V8.30661H11.6934V5.88729H14.1127ZM10.2419 5.88729V8.30661H7.8226V5.88729H10.2419ZM3.9517 4.19382C3.9517 4.06016 4.06005 3.95182 4.1937 3.95182H6.1292H6.12903C6.19332 3.95182 6.25475 3.9773 6.30015 4.0227C6.34554 4.06809 6.37102 4.12952 6.37102 4.19382V13.6291H15.8063C15.8706 13.6291 15.9321 13.6546 15.9775 13.7C16.0228 13.7454 16.0483 13.8068 16.0483 13.8711V15.8066V15.8064C16.0483 15.8707 16.0229 15.9322 15.9775 15.9776C15.9321 16.023 15.8706 16.0484 15.8063 16.0484H4.19364C4.05998 16.0484 3.95164 15.9401 3.95164 15.8064L3.9517 4.19382Z" fill="#8F8F8F"/>
</svg>
