<svg width="20" height="20" viewBox="0 0 20 20" fill="none" xmlns="http://www.w3.org/2000/svg">
<path d="M15.6533 2.83326H5.00832C4.43084 2.83326 3.87695 3.06277 3.46856 3.471C3.06033 3.8794 2.83081 4.43324 2.83081 5.01077V6.94626H4.28248V5.01077C4.28248 4.81822 4.35893 4.63359 4.49512 4.49757C4.63114 4.36138 4.81576 4.28493 5.00832 4.28493H15.6533C15.8458 4.28493 16.0305 4.36138 16.1665 4.49757C16.3027 4.63359 16.3791 4.81821 16.3791 5.01077V15.6557C16.3791 15.8483 16.3027 16.0329 16.1665 16.1689C16.0305 16.3051 15.8459 16.3816 15.6533 16.3816H13.7178V17.8333H15.6533C16.2308 17.8333 16.7847 17.6037 17.1931 17.1955C17.6013 16.7871 17.8308 16.2333 17.8308 15.6557V5.01076C17.8308 4.43328 17.6013 3.87939 17.1931 3.471C16.7847 3.06278 16.2308 2.83325 15.6533 2.83325L15.6533 2.83326Z" fill="#8F8F8F"/>
<path d="M6.70184 8.63965H8.15352V10.0913H6.70184V8.63965Z" fill="#8F8F8F"/>
<path d="M2.83093 8.63965H4.28261V10.0913H2.83093V8.63965Z" fill="#8F8F8F"/>
<path d="M10.5728 8.63965H12.0244V10.0913H10.5728V8.63965Z" fill="#8F8F8F"/>
<path d="M10.5728 12.5105H12.0244V13.9622H10.5728V12.5105Z" fill="#8F8F8F"/>
<path d="M10.5728 16.3815H12.0244V17.8331H10.5728V16.3815Z" fill="#8F8F8F"/>
<path d="M2.83093 15.6556C2.83093 16.2331 3.06044 16.787 3.46868 17.1954C3.87707 17.6036 4.43092 17.8331 5.00844 17.8331H8.87926V16.3814H5.00844C4.81589 16.3814 4.63127 16.305 4.49525 16.1688C4.35906 16.0328 4.28261 15.8482 4.28261 15.6556V11.7848H2.83094L2.83093 15.6556Z" fill="#8F8F8F"/>
</svg>
