<svg width="20" height="20" viewBox="0 0 20 20" fill="none" xmlns="http://www.w3.org/2000/svg">
<path d="M2.5 15.9792V17.4793H17.5V8.01684C17.4998 7.49211 17.237 7.00224 16.8 6.71193L10.8902 2.76943C10.6265 2.59382 10.3168 2.5 10.0001 2.5C9.68339 2.5 9.37371 2.59382 9.11 2.76943L3.20018 6.70952C2.76247 7.00039 2.49951 7.4913 2.50018 8.01688L2.5 15.9792ZM6.50009 15.9792H4.00009V11.2292H7.24995V15.9792H6.50009ZM13.5001 15.9792H8.75009V11.2292H16.0001V15.9792H13.5001ZM15.9999 8.01675V9.7292H12.75V5.81179L15.9701 7.95675H15.9699C15.9896 7.97035 16.0008 7.99302 15.9999 8.01674L15.9999 8.01675ZM4.02982 7.9592L9.94232 4.01683C9.97737 3.99399 10.0224 3.99399 10.0574 4.01683L11.2499 4.8117V9.72911H3.99987V8.01666C3.9997 7.99381 4.01103 7.97236 4.02987 7.95928L4.02982 7.9592Z" fill="#8F8F8F"/>
</svg>
