<svg width="20" height="20" viewBox="0 0 20 20" fill="none" xmlns="http://www.w3.org/2000/svg">
<path d="M12.2499 2.50007H4.24994C3.78588 2.50007 3.34071 2.6844 3.0125 3.01257C2.6843 3.34076 2.5 3.78596 2.5 4.25002V7.24995C2.5 7.71414 2.68432 8.15919 3.0125 8.4874C3.34069 8.81559 3.78588 9.00007 4.24994 9.00007H12.2499C12.7141 9.00007 13.1591 8.81558 13.4873 8.4874C13.8155 8.1592 14 7.71419 14 7.24995V6.50009H14.5C14.8977 6.50009 15.2793 6.65808 15.5606 6.93936C15.8419 7.22065 15.9999 7.60222 15.9999 7.99998V9.50006C15.9999 9.89784 15.8419 10.2794 15.5606 10.5607C15.2793 10.842 14.8977 11 14.5 11H10.25C9.52058 11 8.82112 11.2898 8.30545 11.8054C7.78961 12.3213 7.49997 13.0207 7.49997 13.75V15.9999H5.49994V17.5H10.9999V15.9999H9.00005V13.75C9.00005 13.4185 9.13171 13.1006 9.36608 12.8661C9.60045 12.6317 9.91853 12.5 10.25 12.5H14.5C15.2955 12.5 16.0586 12.184 16.6212 11.6213C17.1839 11.0587 17.5 10.2956 17.5 9.50004V7.99996C17.5 7.20443 17.184 6.44131 16.6212 5.87873C16.0586 5.31601 15.2956 4.99998 14.5 4.99998H14V4.24994C14 3.78588 13.8155 3.34071 13.4873 3.0125C13.1592 2.6843 12.7141 2.5 12.2499 2.5L12.2499 2.50007ZM12.5 7.25004C12.5 7.31648 12.4736 7.37996 12.4267 7.42687C12.3798 7.47377 12.3163 7.50011 12.2499 7.50011H4.24995C4.11183 7.50011 4.00005 7.38815 4.00005 7.25004V4.2501C4.00005 4.11198 4.11183 4.0002 4.24995 4.0002H12.2499C12.3163 4.0002 12.3798 4.02654 12.4267 4.07327C12.4736 4.12018 12.5 4.18383 12.5 4.2501V7.25004Z" fill="#8F8F8F"/>
</svg>
