<svg width="20" height="20" viewBox="0 0 20 20" fill="none" xmlns="http://www.w3.org/2000/svg">
<path d="M14.6315 2.49977C13.8696 2.4975 13.1385 2.79998 12.6008 3.34004L9.47239 6.47107C9.33179 6.61167 9.25294 6.80234 9.25294 7.0012C9.25294 7.20006 9.33179 7.39073 9.47239 7.53132L10.4427 8.50158L8.03189 10.9123L6.06122 8.94168V8.94185C5.80043 8.68071 5.45259 8.52494 5.08417 8.50435C4.71557 8.4836 4.35237 8.59942 4.06402 8.82951C3.7755 9.05977 3.58204 9.38826 3.52046 9.75195L2.52023 15.7539V15.754C2.44104 16.2315 2.59716 16.718 2.93941 17.0602C3.28184 17.4025 3.7682 17.5586 4.24581 17.4796L10.2477 16.4794V16.4792C10.6121 16.4187 10.9413 16.2257 11.1724 15.9376C11.4034 15.6492 11.5201 15.2858 11.4999 14.917C11.4796 14.5481 11.324 14.1998 11.0629 13.9384L9.0922 11.9678L11.5031 9.56205L12.4734 10.5323C12.614 10.6729 12.8047 10.7518 13.0035 10.7518C13.2024 10.7518 13.3931 10.6729 13.5337 10.5323L16.6647 7.40386C17.2048 6.86534 17.5085 6.13426 17.5086 5.37161C17.509 4.60896 17.2056 3.87752 16.6659 3.33869C16.1262 2.80003 15.3942 2.49824 14.6316 2.4998L14.6315 2.49977ZM4.00092 16.0041L5.00115 10.0022L10.0027 15.0037L4.00092 16.0041ZM15.6019 6.34117L13.0036 8.94208L11.0629 7.00142L13.6639 4.4031C14.014 4.0748 14.5102 3.95322 14.9725 4.0823C15.4346 4.21156 15.7959 4.57281 15.9252 5.0351C16.0544 5.49739 15.9328 5.99348 15.6045 6.3436L15.6019 6.34117Z" fill="#8F8F8F"/>
</svg>
