<svg width="20" height="20" viewBox="0 0 20 20" fill="none" xmlns="http://www.w3.org/2000/svg">
<path d="M5.83268 3.33335V16.6667H14.166V3.33335H5.83268ZM4.99935 1.66669H14.9994C15.2204 1.66669 15.4323 1.75448 15.5886 1.91076C15.7449 2.06704 15.8327 2.27901 15.8327 2.50002V17.5C15.8327 17.721 15.7449 17.933 15.5886 18.0893C15.4323 18.2456 15.2204 18.3334 14.9994 18.3334H4.99935C4.77834 18.3334 4.56637 18.2456 4.41009 18.0893C4.25381 17.933 4.16602 17.721 4.16602 17.5V2.50002C4.16602 2.27901 4.25381 2.06704 4.41009 1.91076C4.56637 1.75448 4.77834 1.66669 4.99935 1.66669ZM9.99935 14.1667C10.2204 14.1667 10.4323 14.2545 10.5886 14.4108C10.7449 14.567 10.8327 14.779 10.8327 15C10.8327 15.221 10.7449 15.433 10.5886 15.5893C10.4323 15.7456 10.2204 15.8334 9.99935 15.8334C9.77834 15.8334 9.56637 15.7456 9.41009 15.5893C9.25381 15.433 9.16602 15.221 9.16602 15C9.16602 14.779 9.25381 14.567 9.41009 14.4108C9.56637 14.2545 9.77834 14.1667 9.99935 14.1667Z" fill="#3E64FF"/>
</svg>
