<svg width="40" height="40" viewBox="0 0 40 40" fill="none" xmlns="http://www.w3.org/2000/svg">
<path d="M20 38.1325L10.1004 28.2329C8.14253 26.275 6.80918 23.7804 6.269 21.0647C5.72882 18.349 6.00608 15.534 7.06571 12.9759C8.12534 10.4177 9.91976 8.23124 12.222 6.69291C14.5243 5.15458 17.2311 4.3335 20 4.3335C22.7689 4.3335 25.4757 5.15458 27.778 6.69291C30.0803 8.23124 31.8747 10.4177 32.9343 12.9759C33.9939 15.534 34.2712 18.349 33.731 21.0647C33.1908 23.7804 31.8575 26.275 29.8996 28.2329L20 38.1325Z" fill="#3E64FF" stroke="white" stroke-width="2"/>
<path d="M14.4976 15.2504H13.334L14.4976 10.8334H18.7804V15.9411L21.0431 10.8334H26.0532L22.3037 17.5312L26.6673 25H21.2693L18.7804 20.0851V25H14.4976V15.2504Z" fill="white"/>
</svg>
