<?xml version="1.0" standalone="no"?>
<!DOCTYPE svg PUBLIC "-//W3C//DTD SVG 20010904//EN"
 "http://www.w3.org/TR/2001/REC-SVG-20010904/DTD/svg10.dtd">
<svg version="1.0" xmlns="http://www.w3.org/2000/svg"
 width="512.000000pt" height="512.000000pt" viewBox="0 0 512.000000 512.000000"
 preserveAspectRatio="xMidYMid meet">
<metadata>
Created by potrace 1.14, written by Peter Selinger 2001-2017
</metadata>
<g transform="translate(0.000000,512.000000) scale(0.100000,-0.100000)"
fill="#000000" stroke="none">
<path d="M2492 5090 c-35 -17 -66 -30 -69 -30 -4 0 -25 -9 -47 -19 -56 -26
-114 -52 -376 -166 -243 -105 -276 -120 -361 -159 -31 -14 -59 -26 -62 -26 -3
0 -34 -13 -69 -29 -35 -17 -173 -78 -308 -137 -135 -58 -263 -114 -285 -124
-22 -10 -130 -57 -240 -105 -110 -48 -213 -93 -230 -100 -16 -8 -122 -54 -235
-103 l-205 -90 -3 -2001 -2 -2001 2560 0 2560 0 -2 2002 -3 2001 -80 34 c-44
18 -93 40 -110 48 -16 7 -304 133 -640 280 -335 146 -623 272 -640 280 -16 7
-160 70 -320 140 -159 69 -303 132 -320 140 -58 26 -445 195 -448 195 -1 0
-30 -14 -65 -30z"/>
</g>
</svg>
