<svg width="20" height="20" viewBox="0 0 20 20" fill="none" xmlns="http://www.w3.org/2000/svg">
<path d="M10.8334 1.66666V2.5H16.6667V4.16666H10.8334V15.8333H14.1667V17.5H5.83337V15.8333H9.16671V4.16666H3.33337V2.5H9.16671V1.66666H10.8334ZM4.16671 5.28583L6.52337 7.64333C7.12671 8.24583 7.50004 9.07916 7.50004 10C7.50004 11.8417 6.00837 13.3333 4.16671 13.3333C2.32504 13.3333 0.833374 11.8417 0.833374 10C0.833374 9.07916 1.20671 8.24583 1.81004 7.64333L4.16671 5.28583ZM15.8334 5.28583L18.19 7.64333C18.7934 8.24583 19.1667 9.07916 19.1667 10C19.1667 11.8417 17.675 13.3333 15.8334 13.3333C13.9917 13.3333 12.5 11.8417 12.5 10C12.5 9.07916 12.8734 8.24583 13.4767 7.64333L15.8334 5.28583ZM4.16671 7.64333L2.98837 8.82166C2.67671 9.13333 2.50004 9.55 2.50004 10C2.50004 10.9208 3.24587 11.6667 4.16671 11.6667C5.08754 11.6667 5.83337 10.9208 5.83337 10C5.83337 9.55 5.65671 9.13333 5.34504 8.82166L4.16671 7.64333ZM15.8334 7.64333L14.655 8.82166C14.3434 9.13333 14.1667 9.55 14.1667 10C14.1667 10.9208 14.9125 11.6667 15.8334 11.6667C16.7542 11.6667 17.5 10.9208 17.5 10C17.5 9.55 17.3234 9.13333 17.0117 8.82166L15.8334 7.64333Z" fill="#8F8F8F"/>
</svg>
