<svg width="20" height="20" viewBox="0 0 20 20" fill="none" xmlns="http://www.w3.org/2000/svg">
<path d="M13.75 2.5C16.2816 2.5 18.3333 4.58333 18.3333 7.5C18.3333 13.3333 12.0833 16.6667 9.99996 17.9167C7.91663 16.6667 1.66663 13.3333 1.66663 7.5C1.66663 4.58333 3.74996 2.5 6.24996 2.5C7.79996 2.5 9.16663 3.33333 9.99996 4.16667C10.8333 3.33333 12.2 2.5 13.75 2.5ZM10.7783 15.5033C11.5125 15.04 12.175 14.5792 12.795 14.0858C15.2791 12.1108 16.6666 9.9525 16.6666 7.5C16.6666 5.53333 15.3858 4.16667 13.75 4.16667C12.8533 4.16667 11.8833 4.64167 11.1783 5.345L9.99996 6.52333L8.82163 5.345C8.11663 4.64167 7.14663 4.16667 6.24996 4.16667C4.63329 4.16667 3.33329 5.54667 3.33329 7.5C3.33329 9.95333 4.72163 12.1108 7.20413 14.0858C7.82496 14.5792 8.48746 15.04 9.22163 15.5025C9.47079 15.66 9.71746 15.8108 9.99996 15.9792C10.2825 15.8108 10.5291 15.66 10.7783 15.5033Z" fill="#8F8F8F"/>
</svg>
