<svg width="20" height="20" viewBox="0 0 20 20" fill="none" xmlns="http://www.w3.org/2000/svg">
<path d="M3.33333 5.34501L0.630829 2.64334L1.81 1.46417L4.51166 4.16667H17.2133C17.3432 4.16666 17.4713 4.19702 17.5874 4.25531C17.7035 4.31361 17.8043 4.39823 17.8819 4.50242C17.9594 4.60661 18.0115 4.72749 18.0341 4.85541C18.0566 4.98333 18.0489 5.11475 18.0117 5.23917L16.0117 11.9058C15.9602 12.0776 15.8547 12.2281 15.7109 12.3352C15.5671 12.4422 15.3926 12.5 15.2133 12.5H5V14.1667H14.1667V15.8333H4.16666C3.94565 15.8333 3.73369 15.7455 3.57741 15.5893C3.42113 15.433 3.33333 15.221 3.33333 15V5.34501ZM5 5.83334V10.8333H14.5933L16.0933 5.83334H5ZM4.58333 19.1667C4.25181 19.1667 3.93387 19.035 3.69945 18.8006C3.46502 18.5661 3.33333 18.2482 3.33333 17.9167C3.33333 17.5852 3.46502 17.2672 3.69945 17.0328C3.93387 16.7984 4.25181 16.6667 4.58333 16.6667C4.91485 16.6667 5.23279 16.7984 5.46721 17.0328C5.70163 17.2672 5.83333 17.5852 5.83333 17.9167C5.83333 18.2482 5.70163 18.5661 5.46721 18.8006C5.23279 19.035 4.91485 19.1667 4.58333 19.1667ZM14.5833 19.1667C14.2518 19.1667 13.9339 19.035 13.6994 18.8006C13.465 18.5661 13.3333 18.2482 13.3333 17.9167C13.3333 17.5852 13.465 17.2672 13.6994 17.0328C13.9339 16.7984 14.2518 16.6667 14.5833 16.6667C14.9149 16.6667 15.2328 16.7984 15.4672 17.0328C15.7016 17.2672 15.8333 17.5852 15.8333 17.9167C15.8333 18.2482 15.7016 18.5661 15.4672 18.8006C15.2328 19.035 14.9149 19.1667 14.5833 19.1667Z" fill="white"/>
</svg>
