<svg width="24" height="24" viewBox="0 0 24 24" fill="none" xmlns="http://www.w3.org/2000/svg">
<path d="M3 16.4031C3.00163 17.3681 3.39899 18.2918 4.10214 18.9668C4.80548 19.6416 5.75577 20.011 6.73958 19.9918C7.72333 19.9727 8.65804 19.5665 9.33327 18.8647C10.0236 19.5889 10.9892 20 12 20C13.0108 20 13.9764 19.5889 14.6667 18.8647C15.342 19.5665 16.2767 19.9726 17.2604 19.9918C18.2442 20.011 19.1945 19.6416 19.8979 18.9668C20.6009 18.2919 20.9983 17.3681 21 16.4031V9.53814V9.61111C21 9.50325 21 9.32242 21 9.21114V3H3V9.21114C3 9.32219 3.00001 9.61111 3.00001 9.61111L3 9.53791V16.4031ZM6.66679 18.0376C6.22477 18.0376 5.80066 17.8654 5.48816 17.559C5.17566 17.2523 4.99988 16.8366 4.99988 16.4031V12.4117C6.04548 12.9409 7.28786 12.9409 8.33321 12.4117V16.4031C8.33321 16.8366 8.15767 17.2523 7.84517 17.559C7.53267 17.8654 7.10881 18.0376 6.66679 18.0376ZM12.0002 18.0376C11.5582 18.0376 11.1341 17.8654 10.8214 17.559C10.5089 17.2523 10.3333 16.8366 10.3333 16.4031V12.4117C11.3789 12.9409 12.6211 12.9409 13.6667 12.4117V16.4031C13.6667 16.8366 13.4911 17.2523 13.1786 17.559C12.8659 17.8654 12.4423 18.0376 12.0002 18.0376ZM17.3337 18.0376C16.8917 18.0376 16.4673 17.8654 16.1548 17.559C15.8423 17.2523 15.6668 16.8366 15.6668 16.4031V12.4117C16.7121 12.9409 17.9545 12.9409 19.0001 12.4117V16.4031C19.0001 16.8366 18.8243 17.2523 18.5118 17.559C18.1993 17.8654 17.7757 18.0376 17.3337 18.0376ZM15.6668 4.96151H19.0001V9.21129C19.0001 9.79528 18.6823 10.3348 18.1668 10.6267C17.6511 10.9188 17.0156 10.9188 16.5001 10.6267C15.9844 10.3348 15.6668 9.79528 15.6668 9.21129V4.96151ZM10.3333 4.96151H13.6667V9.21129C13.6667 9.79528 13.3491 10.3348 12.8333 10.6267C12.3176 10.9188 11.6824 10.9188 11.1667 10.6267C10.6509 10.3348 10.3333 9.79528 10.3333 9.21129V4.96151ZM4.99988 4.96151H8.33321V9.21129C8.33321 9.79528 8.0156 10.3348 7.49988 10.6267C6.98439 10.9188 6.34893 10.9188 5.83321 10.6267C5.31773 10.3348 4.99988 9.79528 4.99988 9.21129V4.96151Z" fill="#8F8F8F"/>
</svg>
