<svg width="24" height="24" viewBox="0 0 24 24" fill="none" xmlns="http://www.w3.org/2000/svg">
<path d="M17.1864 2.59709H14.0829V6.32122H10.0483C10.0483 4.99071 9.33842 3.76112 8.18609 3.09586C7.03397 2.43061 5.61429 2.43061 4.46196 3.09586C3.30984 3.76112 2.59998 4.99071 2.59998 6.32122V16.8731C2.60063 17.8068 2.95176 18.706 3.58411 19.3927C4.21623 20.0796 5.08348 20.5039 6.0137 20.5819V20.5972H17.1863C18.0916 20.5972 18.9599 20.2376 19.6003 19.5975C20.2404 18.9571 20.6 18.0888 20.6 17.1835V16.8731V6.01086C20.6 5.10552 20.2404 4.23721 19.6003 3.59684C18.9599 2.95669 18.0916 2.59713 17.1863 2.59713L17.1864 2.59709ZM6.32416 18.7352C5.83036 18.7352 5.3567 18.5391 5.00751 18.1897C4.6581 17.8405 4.46197 17.3668 4.46197 16.873C4.46197 16.3792 4.6581 15.9056 5.00751 15.5564C5.35669 15.2072 5.83037 15.0111 6.32416 15.0111C6.81796 15.0111 7.29162 15.2072 7.64081 15.5564C7.99 15.9056 8.18613 16.3792 8.18613 16.873C8.18613 17.3668 7.99 17.8405 7.64081 18.1897C7.29163 18.5391 6.81795 18.7352 6.32416 18.7352ZM8.18636 7.25232L8.18615 13.6516C7.62115 13.3217 6.97861 13.1478 6.32416 13.1478C5.66972 13.1478 5.02724 13.3217 4.46196 13.6516V6.32127C4.46196 5.65602 4.81699 5.0412 5.39306 4.70868C5.96915 4.37595 6.67896 4.37595 7.25527 4.70868C7.83135 5.0412 8.18615 5.65602 8.18615 6.32127L8.18636 7.25232ZM17.1865 18.7352H9.5458C9.87507 18.17 10.0487 17.5272 10.0485 16.873V8.18325H14.0831V15.6316H17.1865C17.741 15.6316 18.2531 15.9273 18.5302 16.4075C18.8076 16.8877 18.8076 17.4791 18.5302 17.9592C18.2531 18.4394 17.741 18.7351 17.1865 18.7351L17.1865 18.7352ZM18.7382 14.1421C18.2578 13.8962 17.7259 13.7685 17.1865 13.7695H15.945V4.45909H17.1865C17.598 4.45909 17.9927 4.62253 18.2836 4.9137C18.5748 5.20465 18.7382 5.59929 18.7382 6.01084L18.7382 14.1421Z" fill="#8F8F8F"/>
</svg>
