<svg width="24" height="24" viewBox="0 0 24 24" fill="none" xmlns="http://www.w3.org/2000/svg">
<path d="M3 19.3044H8.22581V21.0515H3V19.3044Z" fill="#8F8F8F"/>
<path d="M15.7742 19.3044H21V21.0515H15.7742V19.3044Z" fill="#8F8F8F"/>
<path d="M16.1604 16.5531L16.5146 14.8441L14.9034 14.5063V11.6328L16.1604 11.8948L16.5146 10.1857L14.9034 9.84801V7.07624H18.3873C18.9263 7.07624 19.4432 6.86157 19.8243 6.47938C20.2054 6.09716 20.4195 5.57868 20.4195 5.03823V3.00001H18.6776V5.03823C18.6776 5.1154 18.6471 5.18932 18.5926 5.24396C18.5381 5.29859 18.4642 5.32925 18.3872 5.32925H5.61305C5.45266 5.32925 5.32264 5.19887 5.32264 5.03822V3H3.58081V5.03822C3.58081 5.57867 3.79487 6.09713 4.17597 6.47937C4.5571 6.86159 5.0739 7.07623 5.61302 7.07623H9.09684V8.63395L7.83984 8.37196L7.48565 10.081L9.09684 10.4187V13.2924L7.83984 13.0304L7.48565 14.7395L9.09684 15.077V15.7204C9.0938 16.8021 9.52252 17.8401 10.2872 18.6028L12.0001 20.3206L13.7129 18.6028C14.3458 17.9763 14.754 17.1572 14.8743 16.2736L16.1604 16.5531ZM10.8392 7.07609H13.1619V9.48391L10.8392 8.99771V7.07609ZM10.8392 10.7825L13.1619 11.2687V14.1424L10.8392 13.656V10.7825ZM12.4824 17.3657L12.0004 17.8488L11.5185 17.3655C11.0837 16.929 10.8394 16.3374 10.8392 15.7204V15.4292L13.1618 15.9125L13.1616 15.9127C13.114 16.4623 12.8733 16.9771 12.4824 17.3654L12.4824 17.3657Z" fill="#8F8F8F"/>
</svg>
