<svg width="24" height="24" viewBox="0 0 24 24" fill="none" xmlns="http://www.w3.org/2000/svg">
<path fill-rule="evenodd" clip-rule="evenodd" d="M6.16043 2.60205L2.599 5.78665V13.4248V15.1822V18.835V20.5981V20.6021L20.599 20.602V20.5981V18.835V15.1821V13.4248L20.599 5.78679L16.9832 2.60205L14.2978 5.00331L11.5714 2.60205L8.88639 5.003L6.16043 2.60205ZM18.832 13.4248V6.7354L16.9729 5.04794L15.1873 6.71786L15.1873 13.4248H18.832ZM13.4203 13.4248V6.7354L11.5612 5.04794L9.77627 6.7172L9.77628 13.4248H13.4203ZM9.77628 15.1821L13.4203 15.1821V18.835H9.77628L9.77628 15.1821ZM8.00925 13.4248V6.7354L6.15021 5.04794L4.35637 6.72552L4.35637 13.4248H8.00925ZM4.35637 15.1821L8.00925 15.1821V18.835H4.35637L4.35637 15.1821ZM15.1873 18.835L15.1873 15.1821L18.832 15.1821V18.835H15.1873Z" fill="#8F8F8F"/>
</svg>
