<svg width="24" height="24" viewBox="0 0 24 24" fill="none" xmlns="http://www.w3.org/2000/svg">
<path fill-rule="evenodd" clip-rule="evenodd" d="M21.2627 11.874C21.2627 16.8446 17.2333 20.874 12.2627 20.874C7.29213 20.874 3.2627 16.8446 3.2627 11.874C3.2627 6.90346 7.29213 2.87402 12.2627 2.87402C17.2333 2.87402 21.2627 6.90346 21.2627 11.874ZM19.6082 11.874C19.6082 15.9308 16.3195 19.2195 12.2627 19.2195C8.2059 19.2195 4.91721 15.9308 4.91721 11.874C4.91721 7.81723 8.2059 4.52854 12.2627 4.52854C16.3195 4.52854 19.6082 7.81723 19.6082 11.874ZM9.18331 14.9534C8.36676 14.1367 7.90786 13.0289 7.90786 11.874C7.90786 10.7191 8.36678 9.61137 9.18331 8.79463C10 7.97807 11.1078 7.51918 12.2627 7.51918C13.4176 7.51918 14.5253 7.9781 15.3421 8.79463C16.1586 9.61132 16.6175 10.7191 16.6175 11.874C16.6175 13.0289 16.1586 14.1367 15.3421 14.9534C14.5254 15.77 13.4176 16.2289 12.2627 16.2289C11.1078 16.2289 10 15.7699 9.18331 14.9534ZM14.1103 13.7216C14.6004 13.2317 14.8756 12.567 14.8756 11.874C14.8756 11.181 14.6004 10.5164 14.1103 10.0265C13.6204 9.53638 12.9557 9.26117 12.2628 9.26117C11.5698 9.26117 10.9051 9.5364 10.4152 10.0265C9.92512 10.5163 9.6499 11.181 9.6499 11.874C9.6499 12.567 9.92513 13.2317 10.4152 13.7216C10.9051 14.2117 11.5698 14.4869 12.2628 14.4869C12.9557 14.4869 13.6204 14.2116 14.1103 13.7216Z" fill="#3E64FF"/>
</svg>
