<svg width="24" height="24" viewBox="0 0 24 24" fill="none" xmlns="http://www.w3.org/2000/svg">
<path d="M2.59905 16.8779C2.59905 17.8657 2.99132 18.8128 3.6897 19.5114C4.38826 20.2098 5.33537 20.6021 6.32322 20.6021H18.1164C18.7747 20.6021 19.4062 20.3405 19.8718 19.8749C20.3375 19.4093 20.599 18.7778 20.599 18.1194V15.6366C20.599 14.9781 20.3375 14.3466 19.8718 13.8809C19.4062 13.4153 18.7747 13.1538 18.1164 13.1538H15.1649L18.6842 9.63445C19.1494 9.1688 19.4109 8.53754 19.4109 7.87944C19.4109 7.22134 19.1494 6.59006 18.6842 6.12443L17.0797 4.51988C16.6142 4.05467 15.983 3.79339 15.3247 3.79339C14.6666 3.79339 14.0353 4.05468 13.5696 4.51988L10.0473 8.03617V5.08466C10.0473 4.42634 9.78575 3.79489 9.32011 3.3292C8.85447 2.86352 8.22298 2.60205 7.56444 2.60205H5.08161C4.42328 2.60205 3.79184 2.86356 3.32615 3.3292C2.86047 3.79485 2.599 4.42634 2.599 5.08466L2.59905 16.8779ZM18.7371 15.6366V18.1194C18.7371 18.284 18.6717 18.4418 18.5552 18.5583C18.4388 18.6747 18.281 18.7401 18.1164 18.7401H6.32326C5.65801 18.7401 5.04319 18.3851 4.71068 17.809C4.37795 17.2329 4.37795 16.5231 4.71068 15.9468C5.04319 15.3707 5.65801 15.0159 6.32326 15.0159H18.1164C18.281 15.0159 18.4388 15.0813 18.5552 15.1976C18.6717 15.314 18.7371 15.4718 18.7371 15.6366V15.6366ZM14.8857 5.83243C15.0021 5.71596 15.16 5.65037 15.3247 5.65037C15.4894 5.65037 15.6475 5.71596 15.7639 5.83243L17.3685 7.43698C17.485 7.55344 17.5506 7.71147 17.5506 7.87622C17.5506 8.04096 17.485 8.19877 17.3685 8.31524L12.5301 13.1536H10.0473V10.6708L14.8857 5.83243ZM5.0815 4.46385H7.56433C7.72907 4.46385 7.88688 4.52923 8.00335 4.64569C8.1196 4.76216 8.18497 4.91998 8.18497 5.0845V13.1535H6.323C5.66878 13.1533 5.02609 13.3269 4.46081 13.6562V5.08452C4.46081 4.74183 4.73877 4.46388 5.08145 4.46388L5.0815 4.46385Z" fill="#8F8F8F"/>
</svg>
