<svg width="24" height="24" viewBox="0 0 24 24" fill="none" xmlns="http://www.w3.org/2000/svg">
<path d="M21 4.99987C21 4.4695 20.8039 3.96076 20.4547 3.5857C20.1055 3.21065 19.6318 3 19.138 3H12.9311C12.604 3.00047 12.283 3.0937 12 3.26995C11.7171 3.09371 11.396 3.00047 11.0689 3H4.86196C4.36816 3 3.89451 3.21066 3.54531 3.5857C3.19613 3.96075 3 4.46951 3 4.99987V8.33321C3.00043 8.68454 3.08724 9.02934 3.25134 9.33327C3.08725 9.63717 3.00044 9.98196 3 10.3333V13.6667C3.00043 14.018 3.08724 14.3628 3.25134 14.6667C3.08725 14.9706 3.00044 15.3154 3 15.6668V19.0001C3 19.5305 3.19613 20.0392 3.54531 20.4143C3.8945 20.7893 4.36818 21 4.86196 21H11.0689C11.396 20.9995 11.717 20.9063 12 20.73C12.2829 20.9063 12.604 20.9995 12.9311 21H19.138C19.6318 21 20.1055 20.7893 20.4547 20.4143C20.8039 20.0392 21 19.5305 21 19.0001V15.6668C20.9996 15.3155 20.9128 14.9707 20.7487 14.6667C20.9128 14.3628 20.9996 14.018 21 13.6667V10.3333C20.9996 9.982 20.9128 9.6372 20.7487 9.33327C20.9128 9.02937 20.9996 8.68458 21 8.33321V4.99987ZM19.1378 4.99987L19.138 8.33321H12.9311V4.99987H19.1378ZM19.1378 13.6665H4.86184V10.3332H19.1378V13.6665ZM4.86184 4.99987H11.0688V8.33321H4.86184V4.99987ZM4.86184 18.9999V15.6668H11.0688V19.0001L4.86184 18.9999ZM19.1378 18.9999L12.9309 19.0001V15.6668H19.1378V18.9999Z" fill="#8F8F8F"/>
</svg>
