<svg width="24" height="24" viewBox="0 0 24 24" fill="none" xmlns="http://www.w3.org/2000/svg">
<path d="M5.03226 20.9999H18.9675C19.5065 20.9999 20.0234 20.7856 20.4045 20.4045C20.7856 20.0234 20.9999 19.5066 20.9999 18.9675V16.6451C20.9999 16.1061 20.7856 15.5892 20.4045 15.2081C20.0234 14.827 19.5066 14.6127 18.9675 14.6127H18.6773V11.7096H20.9999V9.96777H18.6773V7.0646H20.9999V5.32259H18.6773V3H16.9353V5.32259H14.0321V3H12.2903V5.32259H9.38714V5.03239C9.38714 4.49334 9.17288 3.97652 8.79178 3.59537C8.41065 3.21425 7.89387 3.00002 7.35476 3.00002H5.03238C4.49332 3.00002 3.9765 3.21427 3.59536 3.59537C3.21423 3.9765 3 4.49328 3 5.03239V18.9676C3 19.5067 3.21425 20.0235 3.59536 20.4046C3.97648 20.7858 4.49327 21 5.03238 21L5.03226 20.9999ZM16.9353 14.6129H14.0321V11.7097H16.9353V14.6129ZM9.38702 11.7097H12.2902V14.6129H9.38702V11.7097ZM16.9353 7.06475V9.96793H14.0321V7.06475H16.9353ZM12.2903 7.06475V9.96793H9.38712V7.06475H12.2903ZM4.74204 5.03258C4.74204 4.87219 4.87205 4.74218 5.03244 4.74218H7.35503H7.35483C7.43199 4.74218 7.5057 4.77276 7.56017 4.82724C7.61465 4.88171 7.64523 4.95543 7.64523 5.03258V16.355H18.9676C19.0448 16.355 19.1185 16.3855 19.1729 16.44C19.2274 16.4945 19.258 16.5682 19.258 16.6453V18.9679V18.9677C19.258 19.0449 19.2274 19.1186 19.1729 19.1731C19.1185 19.2276 19.0448 19.2581 18.9676 19.2581H5.03237C4.87198 19.2581 4.74197 19.1281 4.74197 18.9677L4.74204 5.03258Z" fill="#8F8F8F"/>
</svg>
