<svg width="24" height="24" viewBox="0 0 24 24" fill="none" xmlns="http://www.w3.org/2000/svg">
<path d="M18.784 3.39991H6.00999C5.31701 3.39991 4.65234 3.67532 4.16227 4.16521C3.6724 4.65528 3.39697 5.31989 3.39697 6.01292V8.33551H5.13898V6.01292C5.13898 5.78186 5.23072 5.56031 5.39414 5.39708C5.55737 5.23366 5.77891 5.14192 6.00998 5.14192H18.784C19.015 5.14192 19.2366 5.23366 19.3998 5.39708C19.5632 5.56031 19.655 5.78185 19.655 6.01292V18.7869C19.655 19.018 19.5632 19.2395 19.3998 19.4027C19.2366 19.5662 19.015 19.6579 18.784 19.6579H16.4614V21.3999H18.784C19.4769 21.3999 20.1416 21.1245 20.6317 20.6346C21.1215 20.1445 21.397 19.4799 21.397 18.7869V6.01292C21.397 5.31994 21.1216 4.65527 20.6317 4.1652C20.1416 3.67533 19.477 3.3999 18.784 3.3999L18.784 3.39991Z" fill="#8F8F8F"/>
<path d="M8.04224 10.3676H9.78424V12.1096H8.04224V10.3676Z" fill="#8F8F8F"/>
<path d="M3.39709 10.3676H5.1391V12.1096H3.39709V10.3676Z" fill="#8F8F8F"/>
<path d="M12.6873 10.3676H14.4293V12.1096H12.6873V10.3676Z" fill="#8F8F8F"/>
<path d="M12.6873 15.0126H14.4293V16.7546H12.6873V15.0126Z" fill="#8F8F8F"/>
<path d="M12.6873 19.6577H14.4293V21.3997H12.6873V19.6577Z" fill="#8F8F8F"/>
<path d="M3.39709 18.7867C3.39709 19.4797 3.67251 20.1443 4.16239 20.6344C4.65246 21.1243 5.31708 21.3997 6.01011 21.3997H10.6551V19.6577H6.01011C5.77905 19.6577 5.5575 19.566 5.39427 19.4025C5.23085 19.2393 5.13911 19.0178 5.13911 18.7867V14.1417H3.3971L3.39709 18.7867Z" fill="#8F8F8F"/>
</svg>
