<svg width="24" height="24" viewBox="0 0 24 24" fill="none" xmlns="http://www.w3.org/2000/svg">
<path d="M3 19.1751V20.9752H21V9.62021C20.9998 8.99053 20.6844 8.40269 20.16 8.05431L13.0682 3.32331C12.7518 3.11259 12.3801 3 12.0001 3C11.6201 3 11.2484 3.11259 10.932 3.32331L3.84021 8.05142C3.31496 8.40047 2.99941 8.98956 3.00021 9.62026L3 19.1751ZM7.80011 19.1751H4.80011V13.4751H8.69995V19.1751H7.80011ZM16.2001 19.1751H10.5001V13.4751H19.2001V19.1751H16.2001ZM19.1999 9.6201V11.675H15.3001V6.97415L19.1641 9.5481H19.1639C19.1875 9.56442 19.2009 9.59163 19.1999 9.62009L19.1999 9.6201ZM4.83579 9.55104L11.9308 4.8202C11.9728 4.79279 12.0268 4.79279 12.0689 4.8202L13.4998 5.77404V11.6749H4.79984V9.61999C4.79964 9.59257 4.81324 9.56683 4.83584 9.55114L4.83579 9.55104Z" fill="#8F8F8F"/>
</svg>
