<svg width="24" height="24" viewBox="0 0 24 24" fill="none" xmlns="http://www.w3.org/2000/svg">
<path d="M14.6999 3.00009H5.09993C4.54306 3.00009 4.00885 3.22128 3.615 3.61508C3.22116 4.00892 3 4.54315 3 5.10002V8.69994C3 9.25697 3.22119 9.79102 3.615 10.1849C4.00883 10.5787 4.54306 10.8001 5.09993 10.8001H14.6999C15.2569 10.8001 15.791 10.5787 16.1848 10.1849C16.5786 9.79105 16.8 9.25703 16.8 8.69994V7.80011H17.4C17.8773 7.80011 18.3351 7.9897 18.6727 8.32724C19.0102 8.66478 19.1998 9.12266 19.1998 9.59998V11.4001C19.1998 11.8774 19.0102 12.3353 18.6727 12.6728C18.3352 13.0104 17.8773 13.1999 17.4 13.1999H12.3C11.4247 13.1999 10.5853 13.5477 9.96654 14.1665C9.34753 14.7855 8.99996 15.6249 8.99996 16.5V19.1999H6.59992V21H13.1999V19.1999H10.8001V16.5C10.8001 16.1022 10.958 15.7207 11.2393 15.4393C11.5205 15.158 11.9022 15 12.3001 15H17.4C18.3546 15 19.2704 14.6208 19.9455 13.9455C20.6207 13.2704 20.9999 12.3547 20.9999 11.4001V9.59996C20.9999 8.64532 20.6208 7.72958 19.9455 7.05447C19.2704 6.37921 18.3547 5.99998 17.4 5.99998H16.8V5.09993C16.8 4.54306 16.5786 4.00885 16.1848 3.615C15.791 3.22116 15.257 3 14.6999 3L14.6999 3.00009ZM15 8.70005C15 8.77978 14.9684 8.85595 14.9121 8.91224C14.8558 8.96853 14.7796 9.00013 14.6999 9.00013H5.09994C4.9342 9.00013 4.80006 8.86578 4.80006 8.70004V5.10012C4.80006 4.93438 4.9342 4.80025 5.09994 4.80025H14.6999C14.7796 4.80025 14.8558 4.83184 14.9121 4.88793C14.9684 4.94422 15 5.0206 15 5.10012V8.70005Z" fill="#8F8F8F"/>
</svg>
