<svg width="24" height="24" viewBox="0 0 24 24" fill="none" xmlns="http://www.w3.org/2000/svg">
<path d="M17.5578 2.99977C16.6435 2.99705 15.7662 3.36003 15.121 4.00809L11.3669 7.76534C11.1982 7.93406 11.1035 8.16286 11.1035 8.40149C11.1035 8.64012 11.1981 8.86892 11.3669 9.03764L12.5312 10.202L9.63827 13.0949L7.27346 10.7301V10.7303C6.96052 10.4169 6.54311 10.23 6.101 10.2053C5.65869 10.1804 5.22285 10.3194 4.87683 10.5955C4.5306 10.8718 4.29845 11.266 4.22455 11.7024L3.02428 18.9047V18.9049C2.92924 19.4778 3.11659 20.0616 3.52729 20.4723C3.93821 20.8831 4.52184 21.0704 5.09497 20.9756L12.2973 19.7753V19.7751C12.7346 19.7024 13.1295 19.4709 13.4069 19.1251C13.6841 18.7791 13.8241 18.343 13.7998 17.9005C13.7755 17.4578 13.5888 17.0398 13.2754 16.7262L10.9106 14.3614L13.8038 11.4745L14.9681 12.6388C15.1368 12.8075 15.3656 12.9022 15.6042 12.9022C15.8429 12.9022 16.0717 12.8075 16.2404 12.6388L19.9976 8.88468C20.6457 8.23846 21.0102 7.36116 21.0104 6.44598C21.0108 5.5308 20.6467 4.65307 19.9991 4.00647C19.3514 3.36009 18.473 2.99794 17.5579 2.99981L17.5578 2.99977ZM4.80111 19.2049L6.00138 12.0026L12.0033 18.0045L4.80111 19.2049ZM18.7223 7.60945L15.6043 10.7305L13.2755 8.40175L16.3966 5.28376C16.8168 4.8898 17.4123 4.74391 17.967 4.89881C18.5216 5.05392 18.9551 5.48742 19.1102 6.04217C19.2653 6.59692 19.1194 7.19223 18.7254 7.61236L18.7223 7.60945Z" fill="#8F8F8F"/>
</svg>
