<svg width="20" height="20" viewBox="0 0 20 20" fill="none" xmlns="http://www.w3.org/2000/svg">
<path d="M1.66669 7.49501C1.66625 6.83851 1.79531 6.18837 2.04649 5.58183C2.29767 4.97528 2.66603 4.42424 3.13048 3.96026C3.59492 3.49628 4.14633 3.12847 4.75313 2.8779C5.35993 2.62733 6.01019 2.49891 6.66669 2.50001H13.3334C16.0942 2.50001 18.3334 4.74584 18.3334 7.49501V17.5H6.66669C3.90585 17.5 1.66669 15.2542 1.66669 12.505V7.49501ZM16.6667 15.8333V7.49501C16.6645 6.61209 16.3124 5.76604 15.6876 5.14219C15.0629 4.51834 14.2163 4.16755 13.3334 4.16667H6.66669C6.22906 4.16558 5.79552 4.25088 5.39094 4.4177C4.98635 4.58451 4.61867 4.82955 4.30899 5.13877C3.99931 5.44799 3.75371 5.8153 3.58629 6.21963C3.41887 6.62397 3.33291 7.05738 3.33335 7.49501V12.505C3.33556 13.3879 3.68762 14.234 4.3124 14.8578C4.93719 15.4817 5.78377 15.8325 6.66669 15.8333H16.6667ZM11.6667 9.16667H13.3334V10.8333H11.6667V9.16667ZM6.66669 9.16667H8.33335V10.8333H6.66669V9.16667Z" fill="white"/>
</svg>
