<svg width="20" height="20" viewBox="0 0 20 20" fill="none" xmlns="http://www.w3.org/2000/svg">
<path d="M9.99999 18.3333C5.39749 18.3333 1.66666 14.6025 1.66666 9.99996C1.66666 5.39746 5.39749 1.66663 9.99999 1.66663C14.6025 1.66663 18.3333 5.39746 18.3333 9.99996C18.3333 14.6025 14.6025 18.3333 9.99999 18.3333ZM5.84416 15.2133C7.02378 16.1564 8.48972 16.669 9.99999 16.6666C11.6417 16.6666 13.1442 16.0733 14.3058 15.09C13.7631 14.5331 13.1142 14.0907 12.3975 13.789C11.6808 13.4872 10.9109 13.3323 10.1333 13.3333C9.32715 13.3324 8.52958 13.499 7.79121 13.8226C7.05285 14.1463 6.38981 14.6198 5.84416 15.2133ZM4.67999 14.0166C5.38037 13.2734 6.22555 12.6814 7.16344 12.2772C8.10133 11.8731 9.11206 11.6653 10.1333 11.6666C11.118 11.6653 12.0933 11.8586 13.0031 12.2353C13.9129 12.612 14.7394 13.1647 15.435 13.8616C16.1484 12.8576 16.5697 11.6755 16.6521 10.4466C16.7346 9.21762 16.475 7.98986 15.9021 6.89951C15.3292 5.80915 14.4654 4.89881 13.4066 4.2695C12.3478 3.64018 11.1354 3.31649 9.90383 3.33434C8.67226 3.35218 7.46971 3.71086 6.42959 4.37059C5.38947 5.03032 4.55246 5.96529 4.0114 7.07179C3.47034 8.17829 3.2464 9.41305 3.36442 10.6391C3.48244 11.8651 3.9378 13.0345 4.67999 14.0175V14.0166ZM9.99999 10.8333C9.11594 10.8333 8.26809 10.4821 7.64297 9.85698C7.01785 9.23186 6.66666 8.38401 6.66666 7.49996C6.66666 6.6159 7.01785 5.76806 7.64297 5.14294C8.26809 4.51782 9.11594 4.16663 9.99999 4.16663C10.884 4.16663 11.7319 4.51782 12.357 5.14294C12.9821 5.76806 13.3333 6.6159 13.3333 7.49996C13.3333 8.38401 12.9821 9.23186 12.357 9.85698C11.7319 10.4821 10.884 10.8333 9.99999 10.8333ZM9.99999 9.16663C10.442 9.16663 10.8659 8.99103 11.1785 8.67847C11.4911 8.36591 11.6667 7.94199 11.6667 7.49996C11.6667 7.05793 11.4911 6.63401 11.1785 6.32145C10.8659 6.00889 10.442 5.83329 9.99999 5.83329C9.55796 5.83329 9.13404 6.00889 8.82148 6.32145C8.50892 6.63401 8.33332 7.05793 8.33332 7.49996C8.33332 7.94199 8.50892 8.36591 8.82148 8.67847C9.13404 8.99103 9.55796 9.16663 9.99999 9.16663Z" fill="#3E64FF"/>
</svg>
